<?xml version="1.0" encoding="utf-8"?>
<!-- Generator: Adobe Illustrator 27.0.0, SVG Export Plug-In . SVG Version: 6.00 Build 0)  -->
<svg version="1.1" id="Layer_1" xmlns="http://www.w3.org/2000/svg" xmlns:xlink="http://www.w3.org/1999/xlink" x="0px" y="0px"
	 viewBox="0 0 429 321" style="enable-background:new 0 0 429 321;" xml:space="preserve">
<style type="text/css">
	.st0{fill:url(#SVGID_1_);}
	.st1{fill:#A62024;}
</style>
<g>
	<linearGradient id="SVGID_1_" gradientUnits="userSpaceOnUse" x1="6.9377" y1="309.5131" x2="368.9604" y2="60.7157">
		<stop  offset="0" style="stop-color:#FFFFFF"/>
		<stop  offset="1" style="stop-color:#000000"/>
	</linearGradient>
	<path class="st0" d="M406,136.8c-144.8,10.5-220.2,155.8-225.7,166.8c27.4-110.5,23.7-178.5,7.6-220.3c-1.2-3.1-2.5-6-3.7-8.9
		c29.9-18.1,51.9-22.1,51.9-22.1s19.7-5.6,29.2,1.4C311.3,87.2,376.8,136.3,406,136.8z"/>
	<path class="st1" d="M24,145.4c163.1,26.5,135.3,135.4,135.3,135.4l21.1,22.9C257.1-5,90.1,17.7,90.1,17.7S79.9,18,74.3,32.4
		C68.8,46.8,45,132,24,145.4z"/>
</g>
</svg>
